<svg width="43" height="40" viewBox="0 0 43 40" fill="none" xmlns="http://www.w3.org/2000/svg">
<path d="M21.5297 1.68184C16.4711 1.63332 11.5991 3.4827 7.98434 6.82354C4.36959 10.1644 2.30793 14.7233 2.25244 19.4984C2.27193 23.2721 3.55794 26.9429 5.92575 29.9835C8.29356 33.0241 11.6213 35.2781 15.4311 36.4217C16.395 36.5871 16.7455 36.0412 16.7455 35.5614C16.7455 35.0817 16.7455 34.023 16.7455 32.5341C11.3829 33.6094 10.2438 30.152 10.2438 30.152C9.88677 29.0666 9.12783 28.1388 8.10573 27.5382C6.35325 26.4464 8.24593 26.4629 8.24593 26.4629C8.85168 26.5394 9.43123 26.7443 9.94112 27.0623C10.451 27.3803 10.878 27.8032 11.1901 28.2992C11.7339 29.1894 12.6263 29.8424 13.6751 30.1178C14.724 30.3931 15.8454 30.2688 16.798 29.7715C16.896 28.8656 17.3306 28.0217 18.0248 27.3893C13.7487 26.9427 9.26237 25.4207 9.26237 18.5886C9.22413 16.8064 9.92173 15.08 11.2076 13.7746C10.622 12.2445 10.6911 10.5592 11.4004 9.07646C11.4004 9.07646 13.0302 8.59672 16.6578 10.8962C19.8156 10.1018 23.1387 10.1018 26.2965 10.8962C29.9767 8.59672 31.5539 9.07646 31.5539 9.07646C32.2632 10.5592 32.3323 12.2445 31.7467 13.7746C33.0625 15.0561 33.7979 16.7709 33.7971 18.5555C33.7971 25.4042 29.2757 26.9096 25.0347 27.3562C25.4991 27.7818 25.8578 28.2993 26.0851 28.8713C26.3123 29.4434 26.4025 30.0559 26.3491 30.6648V35.5449C26.3491 35.5449 26.6996 36.5871 27.6634 36.4051C31.4624 35.2544 34.7789 32.9999 37.1394 29.9636C39.4999 26.9273 40.7836 23.2645 40.807 19.4984C40.7515 14.7233 38.6899 10.1644 35.0751 6.82354C31.4604 3.4827 26.5883 1.63332 21.5297 1.68184Z" fill="#111111"/>
</svg>
