<svg width="61" height="60" viewBox="0 0 61 60" fill="none" xmlns="http://www.w3.org/2000/svg">
<path d="M37.975 21.0001C36.0589 20.9935 34.1603 21.3648 32.3878 22.0928C30.6153 22.8207 29.0038 23.891 27.6454 25.2425C26.287 26.5939 25.2085 28.1999 24.4714 29.9686C23.7344 31.7373 23.3533 33.634 23.35 35.5501V50.2501C23.35 50.8468 23.5871 51.4191 24.009 51.8411C24.431 52.263 25.0033 52.5001 25.6 52.5001H30.85C31.4467 52.5001 32.019 52.263 32.441 51.8411C32.863 51.4191 33.1 50.8468 33.1 50.2501V35.5501C33.0995 34.8686 33.2427 34.1946 33.5201 33.5722C33.7975 32.9497 34.203 32.3927 34.7102 31.9374C35.2173 31.4822 35.8147 31.1389 36.4634 30.93C37.1121 30.7212 37.7975 30.6513 38.475 30.7251C39.69 30.8781 40.8066 31.4717 41.613 32.3934C42.4195 33.315 42.8596 34.5005 42.85 35.7251V50.2501C42.85 50.8468 43.0871 51.4191 43.509 51.8411C43.931 52.263 44.5033 52.5001 45.1 52.5001H50.35C50.9467 52.5001 51.519 52.263 51.941 51.8411C52.363 51.4191 52.6 50.8468 52.6 50.2501V35.5501C52.5967 33.634 52.2157 31.7373 51.4786 29.9686C50.7415 28.1999 49.663 26.5939 48.3046 25.2425C46.9462 23.891 45.3347 22.8207 43.5622 22.0928C41.7897 21.3648 39.8911 20.9935 37.975 21.0001Z" fill="#231F20"/>
<path d="M16.6 23.25H9.85004C8.6074 23.25 7.60004 24.2574 7.60004 25.5V50.25C7.60004 51.4926 8.6074 52.5 9.85004 52.5H16.6C17.8427 52.5 18.85 51.4926 18.85 50.25V25.5C18.85 24.2574 17.8427 23.25 16.6 23.25Z" fill="#231F20"/>
<path d="M13.225 18.75C16.3316 18.75 18.85 16.2316 18.85 13.125C18.85 10.0184 16.3316 7.5 13.225 7.5C10.1184 7.5 7.60001 10.0184 7.60001 13.125C7.60001 16.2316 10.1184 18.75 13.225 18.75Z" fill="#231F20"/>
</svg>
