<svg width="42" height="44" viewBox="0 0 42 44" fill="none" xmlns="http://www.w3.org/2000/svg">
<path d="M23.1746 16.9376L16.1996 24.2305C16.0361 24.4 15.9064 24.6016 15.8179 24.8238C15.7294 25.046 15.6838 25.2843 15.6838 25.525C15.6838 25.7657 15.7294 26.004 15.8179 26.2261C15.9064 26.4483 16.0361 26.65 16.1996 26.8195C16.3617 26.9903 16.5545 27.126 16.767 27.2185C16.9795 27.3111 17.2075 27.3588 17.4377 27.3588C17.6679 27.3588 17.8958 27.3111 18.1083 27.2185C18.3208 27.126 18.5136 26.9903 18.6757 26.8195L25.6508 19.5265C25.9792 19.1832 26.1636 18.7176 26.1636 18.2321C26.1636 17.7465 25.9792 17.2809 25.6508 16.9376C25.3224 16.5942 24.8771 16.4014 24.4127 16.4014C23.9484 16.4014 23.503 16.5942 23.1746 16.9376Z" fill="#231F20"/>
<path d="M21.4134 31.7239L19.1814 34.0394C17.9284 35.3894 16.244 36.2099 14.4494 36.3444C12.6548 36.4789 10.8756 35.918 9.45121 34.7687C8.69838 34.1201 8.08404 33.3135 7.64788 32.4012C7.21172 31.4889 6.96343 30.491 6.91906 29.4721C6.87469 28.4533 7.03523 27.436 7.39029 26.486C7.74535 25.536 8.28705 24.6744 8.9804 23.9569L11.4565 21.3497C11.62 21.1802 11.7497 20.9786 11.8382 20.7564C11.9268 20.5342 11.9723 20.2959 11.9723 20.0552C11.9723 19.8145 11.9268 19.5762 11.8382 19.3541C11.7497 19.1319 11.62 18.9302 11.4565 18.7607C11.2944 18.5899 11.1016 18.4542 10.8891 18.3617C10.6766 18.2691 10.4487 18.2214 10.2185 18.2214C9.98827 18.2214 9.76035 18.2691 9.54786 18.3617C9.33536 18.4542 9.1425 18.5899 8.9804 18.7607L6.76581 21.0945C4.90026 22.9833 3.75361 25.5158 3.53874 28.2218C3.32388 30.9277 4.0554 33.6232 5.59749 35.8079C6.51276 37.0494 7.6702 38.0731 8.99293 38.8109C10.3157 39.5487 11.7734 39.9838 13.2693 40.0872C14.7652 40.1907 16.2651 39.9602 17.6693 39.411C19.0734 38.8618 20.3497 38.0065 21.4134 36.9019L23.8896 34.3129C24.218 33.9696 24.4024 33.5039 24.4024 33.0184C24.4024 32.5329 24.218 32.0672 23.8896 31.7239C23.5612 31.3806 23.1159 31.1877 22.6515 31.1877C22.1872 31.1877 21.7418 31.3806 21.4134 31.7239Z" fill="#231F20"/>
<path d="M34.2824 5.87079C32.1786 4.24167 29.5794 3.46903 26.9706 3.69719C24.3617 3.92534 21.9214 5.13868 20.1056 7.11059L18.2223 9.11614C18.0071 9.27975 17.8271 9.4888 17.694 9.72975C17.5609 9.97071 17.4777 10.2382 17.4498 10.5149C17.4218 10.7916 17.4498 11.0714 17.5318 11.3361C17.6138 11.6008 17.7481 11.8445 17.9259 12.0515C18.088 12.2224 18.2809 12.3581 18.4934 12.4506C18.7059 12.5432 18.9338 12.5908 19.164 12.5908C19.3942 12.5908 19.6221 12.5432 19.8346 12.4506C20.0471 12.3581 20.2399 12.2224 20.4021 12.0515L22.6689 9.6631C23.915 8.3072 25.5975 7.48222 27.3913 7.34753C29.1852 7.21284 30.9631 7.77799 32.3817 8.93381C33.1402 9.58252 33.7594 10.391 34.199 11.3067C34.6386 12.2223 34.8888 13.2245 34.9332 14.248C34.9776 15.2715 34.8153 16.2933 34.4568 17.2468C34.0983 18.2003 33.5517 19.0642 32.8525 19.782L30.3764 22.3892C30.213 22.5587 30.0832 22.7604 29.9947 22.9826C29.9062 23.2047 29.8606 23.443 29.8606 23.6837C29.8606 23.9244 29.9062 24.1627 29.9947 24.3849C30.0832 24.6071 30.213 24.8087 30.3764 24.9782C30.5385 25.1491 30.7314 25.2847 30.9439 25.3773C31.1564 25.4699 31.3843 25.5175 31.6145 25.5175C31.8447 25.5175 32.0726 25.4699 32.2851 25.3773C32.4976 25.2847 32.6904 25.1491 32.8525 24.9782L35.3287 22.3892C36.3822 21.2773 37.1977 19.9439 37.7212 18.4776C38.2447 17.0112 38.4643 15.4453 38.3654 13.8835C38.2665 12.3217 37.8513 10.7998 37.1474 9.41841C36.4435 8.03704 35.467 6.8278 34.2824 5.87079Z" fill="#231F20"/>
</svg>
