<svg width="59" height="58" viewBox="0 0 59 58" fill="none" xmlns="http://www.w3.org/2000/svg">
<path d="M29.3 0.00154273C21.7425 -0.0788389 14.4638 2.98476 9.06337 8.51905C3.66299 14.0533 0.582892 21.6055 0.5 29.5157C0.52912 35.767 2.4504 41.8478 5.98787 46.8847C9.52535 51.9216 14.497 55.6555 20.1887 57.55C21.6287 57.824 22.1524 56.9197 22.1524 56.1249C22.1524 55.3302 22.1524 53.5764 22.1524 51.11C14.1407 52.8913 12.4389 47.1638 12.4389 47.1638C11.9056 45.3659 10.7717 43.8289 9.24473 42.834C6.62655 41.0253 9.45418 41.0527 9.45418 41.0527C10.3592 41.1794 11.225 41.5188 11.9868 42.0456C12.7485 42.5724 13.3865 43.2729 13.8527 44.0946C14.6652 45.5693 15.9984 46.6511 17.5653 47.1072C19.1323 47.5634 20.8076 47.3574 22.2309 46.5335C22.3773 45.0328 23.0266 43.6349 24.0636 42.5874C17.6753 41.8475 10.9727 39.3263 10.9727 28.0084C10.9156 25.0561 11.9578 22.1964 13.8789 20.0339C13.004 17.4992 13.1073 14.7074 14.1669 12.2511C14.1669 12.2511 16.6018 11.4564 22.0215 15.2656C26.7391 13.9497 31.7038 13.9497 36.4215 15.2656C41.9196 11.4564 44.276 12.2511 44.276 12.2511C45.3356 14.7074 45.4389 17.4992 44.564 20.0339C46.5297 22.1567 47.6285 24.9973 47.6273 27.9536C47.6273 39.2989 40.8724 41.7927 34.5364 42.5326C35.2301 43.2376 35.766 44.0947 36.1056 45.0424C36.4451 45.9901 36.5798 47.0047 36.5 48.0134V56.0975C36.5 56.0975 37.0236 57.824 38.4636 57.5225C44.1392 55.6163 49.0941 51.8816 52.6207 46.8518C56.1472 41.822 58.0649 35.7544 58.1 29.5157C58.0171 21.6055 54.937 14.0533 49.5366 8.51905C44.1362 2.98476 36.8575 -0.0788389 29.3 0.00154273Z" fill="#231F20"/>
</svg>
